<?xml version="1.0" standalone="no"?>
<!DOCTYPE svg PUBLIC "-//W3C//DTD SVG 1.1//EN" "http://www.w3.org/Graphics/SVG/1.1/DTD/svg11.dtd" >
<svg xmlns="http://www.w3.org/2000/svg">
<metadata>
This is a custom SVG webfont generated by Font Squirrel.
Copyright   : c2004 Copyleft by Yeah Noah All lefts reversed
Designer    : Yeah Noah
Foundry     : Yeah Noah
Foundry URL : httpmywebpagenetscapecomyeahnoahtypehtml
</metadata>
<defs>
<font id="webfontvv9mrtbA" horiz-adv-x="1343" >
<font-face units-per-em="2048" ascent="1638" descent="-410" />
<missing-glyph horiz-adv-x="665" />
<glyph unicode=" "  horiz-adv-x="665" />
<glyph unicode="&#x09;" horiz-adv-x="665" />
<glyph unicode="&#xa0;" horiz-adv-x="665" />
<glyph unicode="!" horiz-adv-x="376" d="M127 0v123h123v-123h-123zM158 336v1098h61v-1098h-61z" />
<glyph unicode="&#x22;" horiz-adv-x="499" d="M127 1147v287h61v-287h-61zM311 1147v287h62v-287h-62z" />
<glyph unicode="#" horiz-adv-x="1095" d="M57 389l11 62h213l75 501h-215l11 62h213l63 420h64l-64 -420h352l64 420h63l-63 -420h215l-10 -62h-215l-76 -501h217l-10 -62h-215l-60 -389h-61l57 389h-352l-60 -389h-61l57 389h-213zM342 451h354l76 501h-354z" />
<glyph unicode="$" horiz-adv-x="1036" d="M102 1067q0 162 108.5 271.5t276.5 123.5v187h62v-185q127 -4 227.5 -66.5t149.5 -176.5l-58 -25q-88 197 -319 207v-666q385 -135 385 -370q0 -162 -109.5 -271.5t-275.5 -124.5v-186h-62v184q-129 4 -229 66.5t-147 177.5l57 25q41 -96 126 -149.5t193 -57.5v663 q-170 61 -277.5 148.5t-107.5 224.5zM164 1067q0 -188 323 -307v641q-141 -14 -232 -107.5t-91 -226.5zM549 33q141 12 232 105t91 229q0 182 -323 307v-641z" />
<glyph unicode="%" horiz-adv-x="1038" d="M123 14l739 1434l53 -29l-739 -1433zM123 1276q0 70 49 119t118.5 49t119 -49t49.5 -119t-49.5 -119t-119 -49t-118.5 49t-49 119zM184 1276q0 -45 31 -76t76 -31t75.5 31t30.5 76t-30.5 75.5t-75.5 30.5t-76 -30.5t-31 -75.5zM580 155.5q0 69.5 49 119t118.5 49.5 t118.5 -49.5t49 -119t-49 -118.5t-118.5 -49t-118.5 49t-49 118.5zM641 156q0 -45 30.5 -76t76 -31t76 31t30.5 76t-30.5 75.5t-76 30.5t-76 -30.5t-30.5 -75.5z" />
<glyph unicode="&#x26;" horiz-adv-x="997" d="M113 397q0 129 88 231.5t235 147.5q-102 41 -158.5 123t-56.5 191q0 162 117 258t293 96q27 0 71 -4l-4 -62q-45 4 -67 4q-150 0 -249 -78.5t-99 -213.5q0 -125 93 -206t251 -81h118v96h62v-96h98v-62h-98v-739q-66 -6 -127 -6q-246 0 -406.5 109.5t-160.5 291.5z M174 397q0 -156 143.5 -248t362.5 -92q41 0 65 2v682h-118q-197 0 -325 -100.5t-128 -243.5z" />
<glyph unicode="'" horiz-adv-x="266" d="M102 1147v287h62v-287h-62z" />
<glyph unicode="(" horiz-adv-x="538" d="M113 717q0 256 96 499.5t285 442.5l45 -41q-180 -190 -272.5 -423.5t-92.5 -477.5q0 -246 92 -478.5t273 -422.5l-45 -41q-188 199 -284.5 442.5t-96.5 499.5z" />
<glyph unicode=")" horiz-adv-x="538" d="M0 -184q180 190 272.5 422.5t92.5 478.5q0 244 -92.5 477t-272.5 424l45 41q188 -199 284.5 -442.5t96.5 -499.5t-96.5 -500t-284.5 -442z" />
<glyph unicode="*" horiz-adv-x="806" d="M102 1139l21 57l250 -82v266h61v-266l254 82l17 -57l-254 -82l157 -213l-49 -37l-158 213l-153 -211l-49 37l153 211z" />
<glyph unicode="+" horiz-adv-x="942" d="M102 602v62h338v337h62v-337h338v-62h-338v-338h-62v338h-338z" />
<glyph unicode="," horiz-adv-x="376" d="M127 0v123h123v-174q0 -145 -96 -180l-21 57q55 18 55 123v51h-61z" />
<glyph unicode="-" horiz-adv-x="737" d="M102 602v62h533v-62h-533z" />
<glyph unicode="." horiz-adv-x="376" d="M127 0v123h123v-123h-123z" />
<glyph unicode="/" horiz-adv-x="931" d="M41 -70l793 1698l57 -24l-793 -1698z" />
<glyph unicode="0" horiz-adv-x="1097" d="M123 717q0 193 46 359.5t145.5 277t234.5 110.5t234.5 -110.5t145.5 -277.5t46 -359q0 -195 -46 -361t-145.5 -276.5t-234.5 -110.5t-234.5 110.5t-145.5 276.5t-46 361zM184 717q0 -178 39 -331t124 -254t202 -101q115 0 200 101t124.5 254t39.5 331q0 176 -39.5 329.5 t-124.5 255t-200 101.5q-117 0 -202 -102.5t-124 -254t-39 -329.5z" />
<glyph unicode="1" horiz-adv-x="1077" d="M201 928l454 571v-1499h-61v1323l-344 -432z" />
<glyph unicode="2" horiz-adv-x="1077" d="M74 0l588 678q63 74 99 120t72.5 123.5t36.5 147.5q0 156 -111.5 245t-254.5 89q-236 0 -340 -205l-55 25q121 242 395 241q170 0 299 -103.5t129 -281.5q0 -84 -39 -173t-79 -141t-114 -136l-495 -568h766v-61h-897z" />
<glyph unicode="3" horiz-adv-x="1077" d="M115 -2l10 61q61 -10 139 -10q258 0 435.5 106.5t177.5 276.5q0 104 -81 194.5t-212 135.5q-137 47 -359 47l400 563h-459v62h577l-401 -568q147 -6 262 -45q139 -47 236.5 -154.5t97.5 -234.5q0 -147 -108.5 -251.5t-256 -148.5t-309.5 -44q-88 0 -149 10z" />
<glyph unicode="4" horiz-adv-x="1077" d="M88 264l713 1245v-1183h172v-62h-172v-264h-62v264h-651zM195 326h544v952z" />
<glyph unicode="5" horiz-adv-x="1077" d="M113 -2l10 61q61 -10 139 -10q258 0 435 106.5t177 276.5q0 104 -80.5 194.5t-211.5 135.5q-135 45 -273 45q-49 0 -125 -4v631h559v-62h-497v-506q37 2 63 2q147 0 293 -47q139 -47 236.5 -154.5t97.5 -234.5q0 -147 -108.5 -251.5t-256 -148.5t-309.5 -44 q-88 0 -149 10z" />
<glyph unicode="6" horiz-adv-x="1077" d="M123 395v443q0 94 14.5 177t52 162.5t96 137t151.5 92.5t212 35q35 0 92 -4v-62q-57 4 -90 4q-467 0 -467 -542v-224q57 94 153.5 150.5t211.5 56.5q176 0 301 -125t125 -301t-125 -301t-301 -125t-301 125t-125 301zM184 395.5q0 -149.5 106.5 -257t258 -107.5 t258 107.5t106.5 257t-106.5 257t-258 107.5t-258 -107.5t-106.5 -257z" />
<glyph unicode="7" horiz-adv-x="1077" d="M123 1372v62h838l-486 -1444l-59 14l458 1368h-751z" />
<glyph unicode="8" horiz-adv-x="1077" d="M113 395q0 133 75.5 241.5t196.5 156.5q-90 43 -144.5 129t-54.5 188q0 145 103.5 248.5t249 103.5t249 -103.5t103.5 -248.5q0 -102 -54.5 -188t-144.5 -129q121 -47 197 -156t76 -242q0 -176 -125 -301t-301.5 -125t-301 125t-124.5 301zM174 395.5 q0 -149.5 107.5 -257t257 -107.5t257 107.5t107.5 257t-107.5 257t-257 107.5t-257 -107.5t-107.5 -257zM248 1110q0 -119 85 -205t205.5 -86t205.5 86t85 205t-85 205t-205.5 86t-205.5 -86t-85 -205z" />
<glyph unicode="9" horiz-adv-x="1077" d="M102 1038q0 176 125 301t301.5 125t301 -125t124.5 -301v-442q0 -94 -14 -177t-52 -163t-96.5 -137.5t-151.5 -92t-212 -34.5q-35 0 -92 4v61q57 -4 90 -4q467 0 467 543v223q-57 -94 -153.5 -150.5t-211.5 -56.5q-176 0 -301 125t-125 301zM164 1038.5 q0 -149.5 106.5 -257t258 -107.5t258 107.5t106.5 257t-106.5 257t-258 107.5t-258 -107.5t-106.5 -257z" />
<glyph unicode=":" horiz-adv-x="376" d="M127 0v123h123v-123h-123zM127 975v123h123v-123h-123z" />
<glyph unicode=";" horiz-adv-x="376" d="M127 0v123h123v-174q0 -145 -96 -180l-21 57q55 18 55 123v51h-61zM127 975v123h123v-123h-123z" />
<glyph unicode="&#x3c;" horiz-adv-x="1126" d="M102 590l902 348l20 -57l-752 -291l752 -291l-20 -57z" />
<glyph unicode="=" horiz-adv-x="942" d="M102 506v61h738v-61h-738zM102 698v62h738v-62h-738z" />
<glyph unicode="&#x3e;" horiz-adv-x="1126" d="M102 299l752 291l-752 291l21 57l901 -348l-901 -348z" />
<glyph unicode="?" horiz-adv-x="1028" d="M104 1227q121 238 392 237q170 0 300 -102t130 -281q0 -129 -61.5 -207.5t-180.5 -144.5q-84 -47 -125 -98t-41 -129v-166h-61v166q0 172 198 280q100 55 154.5 125t54.5 174q0 150 -111.5 236t-256.5 86q-238 0 -338 -205zM426 0v123h123v-123h-123z" />
<glyph unicode="@" horiz-adv-x="1720" d="M113 717q0 309 219 528t528 219t528.5 -219t219.5 -528q0 -154 -88 -271.5t-244 -117.5q-109 0 -172 90q-106 -98 -266 -99q-121 0 -218.5 82t-97.5 220q0 135 96.5 217t219.5 82q139 0 243 -84v2q0 113 -58 178t-149 65q-135 0 -229 -94l-45 45q111 111 274 111 q117 0 193 -83t76 -222v-351q0 -33 41 -65.5t92 -32.5q127 0 198.5 99.5t71.5 228.5q0 285 -200.5 485.5t-485.5 200.5t-485.5 -201t-200.5 -485.5t200.5 -485t485.5 -200.5q152 0 318 78l24 -58q-168 -82 -342 -82q-309 0 -528 219.5t-219 528.5zM584 620.5 q0 -106.5 77.5 -173t176.5 -66.5q154 0 243 104v260q-100 113 -243 113q-98 0 -176 -65.5t-78 -172z" />
<glyph unicode="A" horiz-adv-x="1052" d="M102 12l424 1129l424 -1129l-55 -26l-92 237h-557l-88 -237zM268 285h510l-252 686z" />
<glyph unicode="B" horiz-adv-x="847" d="M135 0v1098q74 8 101 8q135 0 242.5 -69.5t107.5 -202.5q0 -72 -43 -132.5t-109 -91.5q137 -29 224 -112.5t87 -190.5q0 -145 -144 -231t-349 -86q-74 0 -117 10zM197 55q23 -4 73 -4q158 0 286 71t128 181q0 59 -40 116.5t-109 92.5q-113 57 -338 57v-514zM197 633 q16 -4 53 -4q104 0 189 57t85 148q0 96 -87 153t-206 57q-20 0 -34 -2v-409z" />
<glyph unicode="C" horiz-adv-x="1030" d="M102 548.5q0 229.5 183.5 397.5t511.5 168q63 0 131 -6l-4 -61q-68 6 -127 6q-299 0 -466 -150.5t-167 -353.5t167 -352.5t466 -149.5q59 0 127 6l4 -61q-68 -6 -131 -6q-328 0 -511.5 166.5t-183.5 396z" />
<glyph unicode="D" horiz-adv-x="1089" d="M135 0v1106q106 8 158 8q328 0 511 -166t183 -395q0 -227 -183 -393t-511 -166q-78 0 -158 6zM197 57q35 -2 96 -2q299 0 466 147.5t167 350.5t-167 351.5t-466 148.5q-31 0 -96 -4v-992z" />
<glyph unicode="E" horiz-adv-x="1058" d="M135 0v1098h811v-62h-749v-372h614v-62h-614v-541h749v-61h-811z" />
<glyph unicode="F" horiz-adv-x="1048" d="M135 0v1098h811v-62h-749v-372h614v-62h-614v-602h-62z" />
<glyph unicode="G" horiz-adv-x="1050" d="M102 553q0 229 182.5 395t512.5 166q63 0 131 -6v-61q-61 6 -131 6q-301 0 -467 -148.5t-166 -351.5t167 -350.5t466 -147.5q43 0 69 2v406h62v-463q-68 -6 -131 -6q-328 0 -511.5 166t-183.5 393z" />
<glyph unicode="H" horiz-adv-x="1081" d="M135 0v1098h62v-434h688v434h61v-1098h-61v602h-688v-602h-62z" />
<glyph unicode="I" horiz-adv-x="348" d="M143 0v1098h62v-1098h-62z" />
<glyph unicode="J" horiz-adv-x="927" d="M92 119l43 47q135 -125 260 -125q123 0 210 79t118 195q20 74 20 160v623h62v-641q0 -203 -116 -340t-294 -137q-164 0 -303 139z" />
<glyph unicode="K" horiz-adv-x="1167" d="M135 0v1098h62v-590l831 612l37 -49l-684 -506l684 -538l-37 -50l-698 551l-133 -98v-430h-62z" />
<glyph unicode="L" horiz-adv-x="970" d="M135 0v1098h62v-1037h671v-61h-733z" />
<glyph unicode="M" horiz-adv-x="1327" d="M135 0v1147l529 -989l528 989v-1147h-62v903l-466 -876l-467 876v-903h-62z" />
<glyph unicode="N" horiz-adv-x="1124" d="M135 0v1145l793 -1016v969h61v-1145l-792 1016v-969h-62z" />
<glyph unicode="O" d="M102 548.5q0 235.5 167 402.5t402.5 167t402.5 -167t167 -402.5t-167 -402t-402.5 -166.5t-402.5 166.5t-167 402zM164 549q0 -211 148.5 -359.5t359.5 -148.5t359.5 148.5t148.5 359.5t-148.5 359.5t-359.5 148.5t-359.5 -148.5t-148.5 -359.5z" />
<glyph unicode="P" horiz-adv-x="843" d="M135 0v1100q45 6 109 6q236 0 366.5 -98.5t130.5 -248t-131 -245.5t-366 -96q-31 0 -47 2v-420h-62zM197 481q14 -2 47 -2q178 0 307 72t129 209q0 123 -111.5 203.5t-324.5 80.5q-33 0 -47 -2v-561z" />
<glyph unicode="Q" d="M102 548.5q0 235.5 167 402.5t402.5 167t402.5 -167t167 -402q0 -223 -151 -385l141 -141q-33 -29 -45 -41l-139 139q-162 -141 -375 -141q-236 0 -403 166.5t-167 402zM164 549q0 -211 148.5 -359.5t359.5 -148.5q190 0 332 123l-136 135l45 41l134 -133 q133 145 133 342q0 211 -148.5 359.5t-359.5 148.5t-359.5 -148.5t-148.5 -359.5z" />
<glyph unicode="R" horiz-adv-x="876" d="M135 0v1100q45 6 109 6q236 0 366.5 -98.5t130.5 -247.5q0 -131 -88 -210t-192 -106l323 -426l-51 -32l-340 444q-80 -12 -149 -12q-31 0 -47 2v-420h-62zM197 481q14 -2 47 -2q178 0 307 72t129 209q0 123 -111.5 203.5t-324.5 80.5q-33 0 -47 -2v-561z" />
<glyph unicode="S" horiz-adv-x="1044" d="M106 778q0 162 124 248t302 86q135 0 245 -60.5t153 -174.5l-56 -25q-41 98 -133 148.5t-209 50.5q-162 0 -263 -71t-101 -202q0 -51 27.5 -87t87 -57.5t106.5 -31.5t133 -22q41 -8 82 -13.5t82 -14.5t78 -20.5t68.5 -31t55 -43t37 -59.5t13.5 -79q0 -164 -120 -248.5 t-306 -84.5q-293 0 -395 229l57 27q88 -195 338 -195q156 0 260.5 71.5t104.5 200.5q0 43 -24 77t-60.5 52.5t-83.5 33t-95.5 21.5t-93.5 15q-49 10 -104.5 17.5t-110.5 26t-99 43t-72 69.5t-28 104z" />
<glyph unicode="T" horiz-adv-x="1077" d="M102 1036v62h873v-62h-406v-1036h-61v1036h-406z" />
<glyph unicode="U" horiz-adv-x="1101" d="M123 395v703h61v-703q0 -154 106.5 -254t260.5 -100t260.5 100.5t106.5 253.5v703h61v-703q0 -186 -125 -300.5t-303 -114.5t-303 116.5t-125 298.5z" />
<glyph unicode="V" horiz-adv-x="1077" d="M102 1087l58 21l379 -981l379 981l57 -21l-436 -1128z" />
<glyph unicode="W" horiz-adv-x="1593" d="M102 1087l58 21l379 -981l225 584l-146 376l58 21l121 -313l121 313l57 -21l-146 -376l226 -584l379 981l57 -21l-436 -1128l-258 668l-258 -668z" />
<glyph unicode="X" horiz-adv-x="1134" d="M102 18l426 531l-426 530l50 37l415 -518l416 518l49 -37l-426 -530l426 -531l-49 -36l-416 516l-415 -516z" />
<glyph unicode="Y" horiz-adv-x="1132" d="M102 1077l45 39l416 -518l422 522l45 -43l-436 -538v-539h-62v539z" />
<glyph unicode="Z" horiz-adv-x="1093" d="M94 0l780 1036h-772v62h897l-780 -1037h772v-61h-897z" />
<glyph unicode="[" horiz-adv-x="491" d="M143 -225v1884h349v-62h-287v-1761h287v-61h-349z" />
<glyph unicode="\" horiz-adv-x="931" d="M41 1604l57 24l793 -1698l-57 -24z" />
<glyph unicode="]" horiz-adv-x="491" d="M0 -164h287v1761h-287v62h348v-1884h-348v61z" />
<glyph unicode="^" horiz-adv-x="665" d="M102 1137l232 297l229 -297l-49 -37l-180 231l-182 -231z" />
<glyph unicode="_" horiz-adv-x="1046" d="M0 0v61h1047v-61h-1047z" />
<glyph unicode="`" horiz-adv-x="591" d="M123 1468l37 50l309 -224l-37 -49z" />
<glyph unicode="a" horiz-adv-x="1089" d="M113 383q0 178 127 288.5t307 110.5q211 0 358 -141v57q0 186 -93 272.5t-214 86.5q-197 0 -332 -131l-45 41q158 152 377 151q63 0 124.5 -21.5t118 -67.5t91.5 -131t35 -200v-698h-62v106q-139 -127 -358 -126q-178 0 -306 112.5t-128 290.5zM174 383 q0 -152 109.5 -247t263.5 -95q231 0 358 156v356q-137 168 -358 168q-156 0 -264.5 -93t-108.5 -245z" />
<glyph unicode="b" horiz-adv-x="1089" d="M135 0v1829h62v-719q70 4 94 4q330 0 513 -166t183 -395q0 -227 -183 -393t-511 -166q-78 0 -158 6zM197 57q35 -2 96 -2q299 0 466 147.5t167 350.5t-167 351.5t-468 148.5q-29 0 -94 -4v-992z" />
<glyph unicode="c" horiz-adv-x="1030" d="M102 548.5q0 229.5 183.5 397.5t511.5 168q63 0 131 -6l-4 -61q-68 6 -127 6q-299 0 -466 -150.5t-167 -353.5t167 -352.5t466 -149.5q59 0 127 6l4 -61q-68 -6 -131 -6q-328 0 -511.5 166.5t-183.5 396z" />
<glyph unicode="d" horiz-adv-x="1089" d="M102 553q0 229 183.5 395t513.5 166q25 0 94 -4v719h61v-1829q-80 -6 -157 -6q-328 0 -511.5 166t-183.5 393zM164 553q0 -203 167 -350.5t466 -147.5q61 0 96 2v992q-66 4 -94 4q-301 0 -468 -148.5t-167 -351.5z" />
<glyph unicode="e" horiz-adv-x="1150" d="M102 553q0 152 49.5 267.5t126 177t156.5 91t156 29.5q213 0 336 -145.5t123 -370.5h-883q-2 -16 -2 -49q0 -201 166 -349.5t471 -148.5q59 0 125 6v-61q-90 -8 -131 -8q-324 0 -508.5 166t-184.5 395zM172 664h811q0 145 -106.5 269t-286.5 124q-143 0 -265 -102.5 t-153 -290.5z" />
<glyph unicode="f" horiz-adv-x="530" d="M43 1036v62h92v235q0 188 107.5 302t263.5 114q98 0 164.5 -30.5t140.5 -98.5l-41 -45q-68 61 -124 87t-140 26q-131 0 -220 -96.5t-89 -258.5v-235h323v-62h-323v-1636h-62v1636h-92z" />
<glyph unicode="g" horiz-adv-x="1089" d="M102 553q0 227 183.5 393t511.5 166q78 0 157 -6v-1229q0 -193 -113.5 -335t-293.5 -142q-160 0 -303 139l41 45q127 -123 262 -123q152 0 249 124t97 292v121q-53 -6 -94 -6q-330 0 -513.5 166t-183.5 395zM164 553q0 -203 167 -351.5t468 -148.5q29 0 94 4v992 q-35 2 -96 2q-299 0 -466 -147.5t-167 -350.5z" />
<glyph unicode="h" horiz-adv-x="1112" d="M135 0v1829h62v-819q150 109 342 108q143 0 258.5 -69.5t165.5 -204.5q27 -68 26 -144v-700h-61v696q0 66 -23 125q-43 117 -143 176.5t-225 59.5q-199 0 -340 -125v-932h-62z" />
<glyph unicode="i" horiz-adv-x="348" d="M123 1331v103h102v-103h-102zM143 0v1098h62v-1098h-62z" />
<glyph unicode="j" horiz-adv-x="348" d="M-250 -475l53 29q53 -92 148 -93q82 0 137 71t55 194v1372h62v-1372q0 -150 -73 -238t-181 -88q-131 0 -201 125zM123 1333v101h102v-101h-102z" />
<glyph unicode="k" horiz-adv-x="1167" d="M135 0v1829h62v-1321l831 612l37 -49l-684 -506l684 -538l-37 -50l-698 551l-133 -98v-430h-62z" />
<glyph unicode="l" horiz-adv-x="331" d="M135 0v1829h62v-1829h-62z" />
<glyph unicode="m" horiz-adv-x="1703" d="M135 0v1098h62v-90q133 111 313 110q127 0 218 -65.5t130 -184.5q39 119 129 184.5t215 65.5q164 0 271.5 -113.5t107.5 -306.5v-698h-61v698q0 29 -6.5 68t-28 92t-54 96t-93 73t-136.5 30q-154 0 -233.5 -109.5t-79.5 -242.5v-705h-62v705q0 131 -81.5 241.5 t-235.5 110.5q-180 0 -313 -127v-930h-62z" />
<glyph unicode="n" horiz-adv-x="1114" d="M135 0v1098h62v-90q150 111 346 110q143 0 259 -71.5t165 -202.5q25 -66 24 -144v-700h-61v700q0 164 -118 260.5t-269 96.5q-209 0 -346 -125v-932h-62z" />
<glyph unicode="o" d="M102 548.5q0 235.5 167 402.5t402.5 167t402.5 -167t167 -402.5t-167 -402t-402.5 -166.5t-402.5 166.5t-167 402zM164 549q0 -211 148.5 -359.5t359.5 -148.5t359.5 148.5t148.5 359.5t-148.5 359.5t-359.5 148.5t-359.5 -148.5t-148.5 -359.5z" />
<glyph unicode="p" horiz-adv-x="1089" d="M135 -600v1706q80 6 158 6q328 0 511 -166t183 -393q0 -229 -183 -395t-513 -166q-25 0 -94 4v-596h-62zM197 57q66 -4 94 -4q301 0 468 148.5t167 351.5t-167 350.5t-466 147.5q-61 0 -96 -2v-992z" />
<glyph unicode="q" horiz-adv-x="1089" d="M102 553q0 227 183.5 393t511.5 166q78 0 157 -6v-1706h-61v596q-70 -4 -94 -4q-330 0 -513.5 166t-183.5 395zM164 553q0 -203 167 -351.5t468 -148.5q29 0 94 4v992q-35 2 -96 2q-299 0 -466 -147.5t-167 -350.5z" />
<glyph unicode="r" horiz-adv-x="614" d="M135 0v1098h62v-90q150 111 346 110v-61q-209 0 -346 -125v-932h-62z" />
<glyph unicode="s" horiz-adv-x="950" d="M102 795q0 135 127 226t334 91q121 0 225 -43l-24 -57q-100 39 -201 39q-180 0 -289.5 -73t-109.5 -183q0 -162 315 -215q176 -29 272.5 -100.5t96.5 -176.5q0 -135 -127 -226t-334 -91q-121 0 -225 43l24 57q100 -39 201 -39q180 0 289.5 73t109.5 183q0 162 -315 215 q-176 29 -272.5 101t-96.5 176z" />
<glyph unicode="t" horiz-adv-x="606" d="M43 1036v62h92v356h62v-356h323v-62h-323v-651q0 -160 87 -243t226 -83q29 0 47 2l8 -61q-18 -2 -55 -2q-166 0 -270.5 98.5t-104.5 288.5v651h-92z" />
<glyph unicode="u" horiz-adv-x="1101" d="M123 395v703h61v-703q0 -156 106.5 -255t260.5 -99t260.5 99.5t106.5 254.5v703h61v-703q0 -182 -125 -298.5t-303 -116.5t-303 116.5t-125 298.5z" />
<glyph unicode="v" horiz-adv-x="1077" d="M102 1087l58 21l379 -981l379 981l57 -21l-436 -1128z" />
<glyph unicode="w" horiz-adv-x="1593" d="M102 1087l58 21l379 -981l225 584l-146 376l58 21l121 -313l121 313l57 -21l-146 -376l226 -584l379 981l57 -21l-436 -1128l-258 668l-258 -668z" />
<glyph unicode="x" horiz-adv-x="1134" d="M102 18l426 531l-426 530l50 37l415 -518l416 518l49 -37l-426 -530l426 -531l-49 -36l-416 516l-415 -516z" />
<glyph unicode="y" horiz-adv-x="1110" d="M123 381v717h61v-721q0 -160 115 -258.5t268 -98.5q104 0 181 39t165 123v916h62v-1221q0 -193 -113.5 -335t-294.5 -142q-160 0 -303 139l41 45q127 -123 262 -123q152 0 249 124t97 292v219q-156 -137 -344 -137q-168 0 -307 113.5t-139 308.5z" />
<glyph unicode="z" horiz-adv-x="1093" d="M94 0l780 1036h-772v62h897l-780 -1037h772v-61h-897z" />
<glyph unicode="{" horiz-adv-x="512" d="M96 692v49q55 12 112.5 60.5t57.5 103.5q0 74 -30.5 244t-30.5 254q0 102 81 179t226 77v-62q-117 0 -181.5 -58t-64.5 -136q0 -66 31 -238t31 -260q0 -115 -131 -188q131 -74 131 -189q0 -90 -31 -262t-31 -235q0 -78 64.5 -136.5t181.5 -58.5v-61q-145 0 -226 76.5 t-81 179.5q0 84 30.5 254t30.5 243q0 55 -57.5 103.5t-112.5 60.5z" />
<glyph unicode="|" horiz-adv-x="376" d="M158 -246v2075h61v-2075h-61z" />
<glyph unicode="}" horiz-adv-x="512" d="M0 -164q117 0 181.5 58.5t64.5 136.5q0 63 -31 235t-31 262q0 115 131 189q-131 74 -131 188q0 88 31 260t31 238q0 78 -64.5 136t-181.5 58v62q145 0 226 -77t81 -179q0 -84 -30.5 -254t-30.5 -244q0 -55 57 -103t113 -61v-49q-55 -12 -112.5 -60t-57.5 -104 q0 -74 30.5 -243.5t30.5 -253.5q0 -102 -81 -179t-226 -77v61z" />
<glyph unicode="~" horiz-adv-x="1046" d="M102 616q98 125 228 125q100 0 211 -82q90 -72 178 -71q96 0 176 100l49 -37q-98 -125 -225 -125q-102 0 -215 84q-96 70 -174 70q-98 0 -178 -100z" />
<glyph unicode="&#xa1;" horiz-adv-x="376" d="M127 975v123h123v-123h-123zM158 -336v1098h61v-1098h-61z" />
<glyph unicode="&#xa2;" horiz-adv-x="1048" d="M102 548.5q0 188.5 127 342t361 203.5v188h61v-178q76 10 146 10q63 0 131 -6l-4 -61q-68 6 -127 6q-299 0 -466 -150.5t-167 -353.5t167 -352.5t466 -149.5q59 0 127 6l4 -61q-68 -6 -131 -6q-70 0 -146 10v-184h-61v194q-233 49 -360.5 201.5t-127.5 341z" />
<glyph unicode="&#xa3;" horiz-adv-x="1009" d="M41 707v61h133q-25 113 -24 207q0 205 142 332t413 127v-62q-240 0 -367 -110.5t-127 -286.5q0 -90 25 -207h215v-61h-201q14 -63 28.5 -117.5t24.5 -118t10 -119.5q0 -119 -69 -217q23 10 59 10q106 0 215 -51q106 -47 191 -47q117 0 188 70l41 -45q-92 -86 -229 -86 q-96 0 -215 51q-109 47 -191 47q-41 0 -123 -43q-70 -37 -102 -41l-10 61q61 14 122.5 102.5t61.5 188.5q0 92 -66 355h-145z" />
<glyph unicode="&#xa5;" horiz-adv-x="1142" d="M102 1417l54 33l415 -674l416 674l53 -33l-438 -710v-113h297v-62h-297v-118h297v-62h-297v-352h-61v352h-297v62h297v118h-297v62h297v113z" />
<glyph unicode="&#xa6;" horiz-adv-x="471" d="M205 -246v901h61v-901h-61zM205 928v901h61v-901h-61z" />
<glyph unicode="&#xa7;" horiz-adv-x="1050" d="M123 653q0 86 61.5 156t163.5 109q-168 63 -168 215q0 125 119 213t322 88q80 0 161 -17l-8 -61q-82 16 -153 16q-174 0 -276.5 -70.5t-102.5 -168.5q0 -150 245 -185l80 -10q166 -23 263.5 -122t97.5 -214q0 -88 -61.5 -156.5t-164.5 -107.5q168 -63 168 -213 q0 -125 -118.5 -213t-321.5 -88q-80 0 -162 16l8 62q82 -16 154 -17q174 0 276.5 71t102.5 169q0 70 -65.5 119t-182.5 65l-84 10q-164 20 -259 119.5t-95 214.5zM184 653q0 -98 85 -176t220 -96q39 -6 70 -6q133 0 220 68.5t87 158.5q0 96 -85 175t-216 97q-39 6 -71 7 q-133 0 -221.5 -69t-88.5 -159z" />
<glyph unicode="&#xa8;" horiz-adv-x="665" d="M143 1331v103h103v-103h-103zM420 1331v103h102v-103h-102z" />
<glyph unicode="&#xa9;" horiz-adv-x="1720" d="M113 717q0 309 219 528t528 219t528.5 -219t219.5 -528t-219.5 -528.5t-528.5 -219.5t-528 219.5t-219 528.5zM174 716.5q0 -284.5 200.5 -485t485.5 -200.5t485.5 200.5t200.5 485t-200.5 485.5t-485.5 201t-485.5 -201t-200.5 -485.5zM494 717q0 166 131 285.5 t368 119.5q63 0 94 -4l-8 -61q-31 4 -86 4q-207 0 -322.5 -102.5t-115.5 -241.5t114.5 -240.5t321.5 -101.5q55 0 88 4l8 -62q-33 -4 -96 -4q-236 0 -366.5 120t-130.5 284z" />
<glyph unicode="&#xaa;" horiz-adv-x="1089" d="M113 383q0 178 127 288.5t307 110.5q211 0 358 -141v57q0 186 -93 272.5t-214 86.5q-197 0 -332 -131l-45 41q158 152 377 151q63 0 124.5 -21.5t118 -67.5t91.5 -131t35 -200v-698h-62v106q-139 -127 -358 -126q-178 0 -306 112.5t-128 290.5zM174 383 q0 -152 109.5 -247t263.5 -95q231 0 358 156v356q-137 168 -358 168q-156 0 -264.5 -93t-108.5 -245z" />
<glyph unicode="&#xab;" horiz-adv-x="854" d="M102 553l347 270l36 -49l-280 -221l280 -219l-36 -49zM369 553l346 270l37 -49l-281 -221l281 -219l-37 -49z" />
<glyph unicode="&#xad;" horiz-adv-x="737" d="M102 602v62h533v-62h-533z" />
<glyph unicode="&#xae;" horiz-adv-x="1024" d="M123 1075q0 162 113.5 275.5t275.5 113.5t275.5 -113.5t113.5 -275.5t-113.5 -275.5t-275.5 -113.5t-275.5 113.5t-113.5 275.5zM184 1075q0 -137 95.5 -232t232.5 -95t232.5 95t95.5 232t-95.5 232.5t-232.5 95.5t-232.5 -95.5t-95.5 -232.5zM395 891v412h60 q92 0 143 -42t51 -102q0 -84 -88 -121l98 -129l-49 -37l-114 150q-12 -2 -39 -2v-129h-62zM457 1081q61 0 96 23.5t35 54.5q0 33 -35 57.5t-96 24.5v-160z" />
<glyph unicode="&#xaf;" horiz-adv-x="819" d="M143 1352v61h533v-61h-533z" />
<glyph unicode="&#xb0;" horiz-adv-x="561" d="M113 1097.5q0 69.5 49 119t118.5 49.5t119 -49.5t49.5 -119t-49.5 -118.5t-119 -49t-118.5 49t-49 118.5zM174 1098q0 -45 31 -76t76 -31t75.5 31t30.5 76t-30.5 75.5t-75.5 30.5t-76 -30.5t-31 -75.5z" />
<glyph unicode="&#xb1;" horiz-adv-x="983" d="M123 205v61h737v-61h-737zM123 664v61h338v336h61v-336h338v-61h-338v-336h-61v336h-338z" />
<glyph unicode="&#xb2;" horiz-adv-x="651" d="M102 985l285 328q90 102 90 166q0 59 -44 94t-101 35q-98 0 -137 -82l-54 28q59 115 191 115q82 0 144.5 -51t62.5 -139q0 -86 -107 -207l-196 -225h303v-62h-437z" />
<glyph unicode="&#xb3;" horiz-adv-x="595" d="M106 987l13 62q23 -4 59 -5q102 0 178 41t76 113q0 41 -35 77t-84 54q-47 14 -184 23l174 247h-180v62h301l-180 -254q57 -8 90 -21q70 -25 115 -75.5t45 -112.5q0 -100 -94.5 -157.5t-221.5 -57.5q-49 0 -72 4z" />
<glyph unicode="&#xb4;" horiz-adv-x="632" d="M143 1294l310 224l36 -50l-309 -223z" />
<glyph unicode="&#xb6;" horiz-adv-x="851" d="M102 1155q0 115 82 197t197 82h450v-62h-102v-1372h-61v1372h-164v-1372h-62v877h-61q-115 0 -197 81.5t-82 196.5zM164 1155q0 -90 63.5 -153.5t153.5 -63.5h61v434h-61q-90 0 -153.5 -63.5t-63.5 -153.5z" />
<glyph unicode="&#xb7;" horiz-adv-x="327" d="M102 569v123h123v-123h-123z" />
<glyph unicode="&#xb8;" horiz-adv-x="552" d="M219 -223l21 57q18 -8 47 -8q61 0 61 41q0 20 -65 20h-27l31 119l61 -16l-12 -39q74 -14 74 -84q0 -51 -37 -77t-88 -26q-35 1 -66 13z" />
<glyph unicode="&#xb9;" horiz-adv-x="456" d="M102 1405l232 293v-713h-62v533l-120 -150z" />
<glyph unicode="&#xba;" d="M102 548.5q0 235.5 167 402.5t402.5 167t402.5 -167t167 -402.5t-167 -402t-402.5 -166.5t-402.5 166.5t-167 402zM164 549q0 -211 148.5 -359.5t359.5 -148.5t359.5 148.5t148.5 359.5t-148.5 359.5t-359.5 148.5t-359.5 -148.5t-148.5 -359.5z" />
<glyph unicode="&#xbb;" horiz-adv-x="854" d="M102 334l281 219l-281 221l37 49l346 -270l-346 -268zM369 334l280 219l-280 221l37 49l346 -270l-346 -268z" />
<glyph unicode="&#xbf;" horiz-adv-x="870" d="M102 16q0 229 238 353q84 43 127 94t43 133v166h61v-166q0 -180 -196 -281q-72 -41 -108 -68.5t-69.5 -88t-33.5 -142.5q0 -145 110.5 -233t255.5 -88q238 0 340 203l56 -25q-119 -240 -394 -240q-168 0 -299 101.5t-131 281.5zM479 975v123h123v-123h-123z" />
<glyph unicode="&#xc0;" horiz-adv-x="1052" d="M129 12l424 1129l424 -1129l-55 -26l-93 237h-557l-88 -237zM295 285h510l-252 686zM342 1468l37 50l309 -224l-37 -49z" />
<glyph unicode="&#xc1;" horiz-adv-x="1052" d="M129 12l424 1129l424 -1129l-55 -26l-93 237h-557l-88 -237zM295 285h510l-252 686zM383 1294l309 224l37 -50l-309 -223z" />
<glyph unicode="&#xc2;" horiz-adv-x="1052" d="M129 12l424 1129l424 -1129l-55 -26l-93 237h-557l-88 -237zM295 285h510l-252 686zM332 1282l182 236l184 -236l-49 -37l-135 170l-133 -170z" />
<glyph unicode="&#xc3;" horiz-adv-x="1052" d="M129 12l424 1129l424 -1129l-55 -26l-93 237h-557l-88 -237zM272 1354q51 96 144 96q59 0 116 -45q41 -31 78 -31q61 0 97 72l49 -37q-53 -96 -146 -96q-57 0 -114 43q-43 33 -80 33q-61 0 -94 -72zM295 285h510l-252 686z" />
<glyph unicode="&#xc4;" horiz-adv-x="1052" d="M129 12l424 1129l424 -1129l-55 -26l-93 237h-557l-88 -237zM295 285h510l-252 686zM326 1331v103h102v-103h-102zM602 1331v103h103v-103h-103z" />
<glyph unicode="&#xc5;" horiz-adv-x="1052" d="M129 12l424 1129l424 -1129l-55 -26l-93 237h-557l-88 -237zM295 285h510l-252 686zM377 1382.5q0 57.5 40 97.5t97 40t97 -40t40 -97.5t-40 -97.5t-97 -40t-97 40t-40 97.5zM438 1382.5q0 -30.5 22.5 -53t53.5 -22.5t53.5 22.5t22.5 53t-22.5 53t-53.5 22.5t-53.5 -22.5 t-22.5 -53z" />
<glyph unicode="&#xc6;" horiz-adv-x="1531" d="M102 16l711 1082h606v-62h-545v-372h410v-62h-410v-541h545v-61h-606v268h-469l-188 -284zM385 330h428v653z" />
<glyph unicode="&#xc7;" horiz-adv-x="1030" d="M102 553q0 229 183.5 395t511.5 166q63 0 131 -6l-4 -61q-68 6 -127 6q-299 0 -466 -148.5t-167 -351.5t167 -350.5t466 -147.5q59 0 127 6l4 -61q-68 -6 -131 -6q-70 0 -148 10l-10 -37q74 -14 74 -84q0 -51 -37 -76.5t-88 -25.5q-35 0 -66 12l21 57q18 -8 47 -8 q61 0 61 41q0 20 -65 21h-27l29 110q-233 49 -359.5 200t-126.5 339z" />
<glyph unicode="&#xc8;" horiz-adv-x="1058" d="M135 0v1098h811v-62h-749v-372h614v-62h-614v-541h749v-61h-811zM369 1468l37 50l309 -224l-37 -49z" />
<glyph unicode="&#xc9;" horiz-adv-x="1058" d="M135 0v1098h811v-62h-749v-372h614v-62h-614v-541h749v-61h-811zM369 1294l309 224l37 -50l-309 -223z" />
<glyph unicode="&#xca;" horiz-adv-x="1058" d="M135 0v1098h811v-62h-749v-372h614v-62h-614v-541h749v-61h-811zM358 1282l183 236l184 -236l-49 -37l-135 170l-133 -170z" />
<glyph unicode="&#xcb;" horiz-adv-x="1058" d="M135 0v1098h811v-62h-749v-372h614v-62h-614v-541h749v-61h-811zM352 1331v103h103v-103h-103zM629 1331v103h102v-103h-102z" />
<glyph unicode="&#xcc;" horiz-adv-x="348" d="M2 1468l37 50l309 -224l-37 -49zM143 0v1098h62v-1098h-62z" />
<glyph unicode="&#xcd;" horiz-adv-x="348" d="M33 1294l309 224l37 -50l-309 -223zM143 0v1098h62v-1098h-62z" />
<glyph unicode="&#xce;" horiz-adv-x="348" d="M-8 1282l182 236l184 -236l-49 -37l-135 170l-133 -170zM143 0v1098h62v-1098h-62z" />
<glyph unicode="&#xcf;" horiz-adv-x="348" d="M-14 1331v103h102v-103h-102zM143 0v1098h62v-1098h-62zM262 1331v103h103v-103h-103z" />
<glyph unicode="&#xd1;" horiz-adv-x="1124" d="M135 0v1145l793 -1016v969h61v-1145l-792 1016v-969h-62zM319 1354q51 96 144 96q59 0 117 -45q39 -31 77 -31q61 0 97 72l49 -37q-53 -96 -146 -96q-55 0 -114 43q-43 33 -80 33q-61 0 -94 -72z" />
<glyph unicode="&#xd2;" d="M102 548.5q0 235.5 167 402.5t402.5 167t402.5 -167t167 -402.5t-167 -402t-402.5 -166.5t-402.5 166.5t-167 402zM164 549q0 -211 148.5 -359.5t359.5 -148.5t359.5 148.5t148.5 359.5t-148.5 359.5t-359.5 148.5t-359.5 -148.5t-148.5 -359.5zM500 1468l37 50l309 -224 l-37 -49z" />
<glyph unicode="&#xd3;" d="M102 548.5q0 235.5 167 402.5t402.5 167t402.5 -167t167 -402.5t-167 -402t-402.5 -166.5t-402.5 166.5t-167 402zM164 549q0 -211 148.5 -359.5t359.5 -148.5t359.5 148.5t148.5 359.5t-148.5 359.5t-359.5 148.5t-359.5 -148.5t-148.5 -359.5zM500 1294l309 224l37 -50 l-309 -223z" />
<glyph unicode="&#xd4;" d="M102 548.5q0 235.5 167 402.5t402.5 167t402.5 -167t167 -402.5t-167 -402t-402.5 -166.5t-402.5 166.5t-167 402zM164 549q0 -211 148.5 -359.5t359.5 -148.5t359.5 148.5t148.5 359.5t-148.5 359.5t-359.5 148.5t-359.5 -148.5t-148.5 -359.5zM489 1282l183 236 l184 -236l-49 -37l-135 170l-133 -170z" />
<glyph unicode="&#xd5;" d="M102 548.5q0 235.5 167 402.5t402.5 167t402.5 -167t167 -402.5t-167 -402t-402.5 -166.5t-402.5 166.5t-167 402zM164 549q0 -211 148.5 -359.5t359.5 -148.5t359.5 148.5t148.5 359.5t-148.5 359.5t-359.5 148.5t-359.5 -148.5t-148.5 -359.5zM430 1354q51 96 143 96 q59 0 117 -45q39 -31 78 -31q61 0 96 72l49 -37q-53 -96 -145 -96q-55 0 -115 43q-43 33 -80 33q-61 0 -94 -72z" />
<glyph unicode="&#xd6;" d="M102 548.5q0 235.5 167 402.5t402.5 167t402.5 -167t167 -402.5t-167 -402t-402.5 -166.5t-402.5 166.5t-167 402zM164 549q0 -211 148.5 -359.5t359.5 -148.5t359.5 148.5t148.5 359.5t-148.5 359.5t-359.5 148.5t-359.5 -148.5t-148.5 -359.5zM483 1331v103h103v-103 h-103zM760 1331v103h102v-103h-102z" />
<glyph unicode="&#xd7;" horiz-adv-x="983" d="M123 309l323 324l-323 323l45 45l324 -323l323 323l45 -45l-323 -323l323 -324l-45 -45l-323 324l-324 -324z" />
<glyph unicode="&#xd8;" d="M102 23l146 145q-145 166 -146 381q0 236 167 402.5t403 166.5q215 0 377 -145l147 147l45 -45l-147 -147q147 -160 147 -379q0 -236 -167 -402.5t-402 -166.5q-219 0 -379 143l-146 -146zM164 549q0 -195 127 -338l717 719q-143 127 -336 127q-211 0 -359.5 -148.5 t-148.5 -359.5zM336 166q145 -125 336 -125q211 0 359.5 148.5t148.5 359.5q0 188 -127 336z" />
<glyph unicode="&#xd9;" horiz-adv-x="1101" d="M123 395v703h61v-703q0 -154 106.5 -254t260.5 -100t260.5 100.5t106.5 253.5v703h61v-703q0 -186 -125 -300.5t-303 -114.5t-303 116.5t-125 298.5zM379 1468l37 50l309 -224l-37 -49z" />
<glyph unicode="&#xda;" horiz-adv-x="1101" d="M123 395v703h61v-703q0 -154 106.5 -254t260.5 -100t260.5 100.5t106.5 253.5v703h61v-703q0 -186 -125 -300.5t-303 -114.5t-303 116.5t-125 298.5zM379 1294l309 224l37 -50l-309 -223z" />
<glyph unicode="&#xdb;" horiz-adv-x="1101" d="M123 395v703h61v-703q0 -154 106.5 -254t260.5 -100t260.5 100.5t106.5 253.5v703h61v-703q0 -186 -125 -300.5t-303 -114.5t-303 116.5t-125 298.5zM369 1282l182 236l184 -236l-49 -37l-135 170l-133 -170z" />
<glyph unicode="&#xdc;" horiz-adv-x="1101" d="M123 395v703h61v-703q0 -154 106.5 -254t260.5 -100t260.5 100.5t106.5 253.5v703h61v-703q0 -186 -125 -300.5t-303 -114.5t-303 116.5t-125 298.5zM362 1331v103h103v-103h-103zM639 1331v103h102v-103h-102z" />
<glyph unicode="&#xdd;" horiz-adv-x="1132" d="M102 1077l45 39l416 -518l422 522l45 -43l-436 -538v-539h-62v539zM391 1294l309 224l37 -50l-309 -223z" />
<glyph unicode="&#xde;" horiz-adv-x="802" d="M135 0v1098h62v-207q49 4 71 4q205 0 318.5 -101.5t113.5 -242.5q0 -139 -113.5 -241.5t-316.5 -102.5q-49 0 -73 2v-209h-62zM197 270q27 -2 73 -2q174 0 271.5 84t97.5 199t-97.5 199t-273.5 84q-23 0 -71 -5v-559z" />
<glyph unicode="&#xdf;" horiz-adv-x="1107" d="M135 0v1251q0 131 95.5 218t218.5 87v-61q-98 0 -175 -69.5t-77 -174.5v-153h716l-329 -492q166 -29 288.5 -152.5t122.5 -281.5q0 -215 -163.5 -363.5t-442.5 -148.5v61q250 0 397.5 131.5t147.5 319.5q0 152 -139.5 264.5t-319.5 112.5l324 487h-602v-1036h-62z" />
<glyph unicode="&#xe0;" horiz-adv-x="1089" d="M113 383q0 178 127 288.5t307 110.5q211 0 358 -141v57q0 186 -93 272.5t-214 86.5q-197 0 -332 -131l-45 41q158 152 377 151q63 0 124.5 -21.5t118 -67.5t91.5 -131t35 -200v-698h-62v106q-139 -127 -358 -126q-178 0 -306 112.5t-128 290.5zM174 383 q0 -152 109.5 -247t263.5 -95q231 0 358 156v356q-137 168 -358 168q-156 0 -264.5 -93t-108.5 -245zM410 1468l36 50l310 -224l-37 -49z" />
<glyph unicode="&#xe1;" horiz-adv-x="1089" d="M113 383q0 178 127 288.5t307 110.5q211 0 358 -141v57q0 186 -93 272.5t-214 86.5q-197 0 -332 -131l-45 41q158 152 377 151q63 0 124.5 -21.5t118 -67.5t91.5 -131t35 -200v-698h-62v106q-139 -127 -358 -126q-178 0 -306 112.5t-128 290.5zM174 383 q0 -152 109.5 -247t263.5 -95q231 0 358 156v356q-137 168 -358 168q-156 0 -264.5 -93t-108.5 -245zM438 1294l310 224l36 -50l-309 -223z" />
<glyph unicode="&#xe2;" horiz-adv-x="1089" d="M113 383q0 178 127 288.5t307 110.5q211 0 358 -141v57q0 186 -93 272.5t-214 86.5q-197 0 -332 -131l-45 41q158 152 377 151q63 0 124.5 -21.5t118 -67.5t91.5 -131t35 -200v-698h-62v106q-139 -127 -358 -126q-178 0 -306 112.5t-128 290.5zM174 383 q0 -152 109.5 -247t263.5 -95q231 0 358 156v356q-137 168 -358 168q-156 0 -264.5 -93t-108.5 -245zM414 1282l182 236l184 -236l-49 -37l-135 170l-133 -170z" />
<glyph unicode="&#xe3;" horiz-adv-x="1089" d="M113 383q0 178 127 288.5t307 110.5q211 0 358 -141v57q0 186 -93 272.5t-214 86.5q-197 0 -332 -131l-45 41q158 152 377 151q63 0 124.5 -21.5t118 -67.5t91.5 -131t35 -200v-698h-62v106q-139 -127 -358 -126q-178 0 -306 112.5t-128 290.5zM174 383 q0 -152 109.5 -247t263.5 -95q231 0 358 156v356q-137 168 -358 168q-156 0 -264.5 -93t-108.5 -245zM340 1354q51 96 143 96q59 0 117 -45q41 -31 78 -31q61 0 96 72l49 -37q-53 -96 -145 -96q-55 0 -115 43q-43 33 -80 33q-61 0 -94 -72z" />
<glyph unicode="&#xe4;" horiz-adv-x="1089" d="M113 383q0 178 127 288.5t307 110.5q211 0 358 -141v57q0 186 -93 272.5t-214 86.5q-197 0 -332 -131l-45 41q158 152 377 151q63 0 124.5 -21.5t118 -67.5t91.5 -131t35 -200v-698h-62v106q-139 -127 -358 -126q-178 0 -306 112.5t-128 290.5zM174 383 q0 -152 109.5 -247t263.5 -95q231 0 358 156v356q-137 168 -358 168q-156 0 -264.5 -93t-108.5 -245zM397 1331v103h103v-103h-103zM674 1331v103h102v-103h-102z" />
<glyph unicode="&#xe5;" horiz-adv-x="1089" d="M113 383q0 178 127 288.5t307 110.5q211 0 358 -141v57q0 186 -93 272.5t-214 86.5q-197 0 -332 -131l-45 41q158 152 377 151q63 0 124.5 -21.5t118 -67.5t91.5 -131t35 -200v-698h-62v106q-139 -127 -358 -126q-178 0 -306 112.5t-128 290.5zM174 383 q0 -152 109.5 -247t263.5 -95q231 0 358 156v356q-137 168 -358 168q-156 0 -264.5 -93t-108.5 -245zM428 1382.5q0 57.5 40 97.5t97.5 40t97 -40t39.5 -97.5t-39.5 -97.5t-97 -40t-97.5 40t-40 97.5zM489 1382.5q0 -30.5 23 -53t53.5 -22.5t53 22.5t22.5 53t-22.5 53 t-53 22.5t-53.5 -22.5t-23 -53z" />
<glyph unicode="&#xe6;" horiz-adv-x="1912" d="M113 383q0 178 127 288.5t307 110.5q211 0 358 -141v55q0 188 -93 274.5t-214 86.5q-197 0 -332 -131l-45 41q158 152 377 151q127 0 228.5 -77.5t127.5 -221.5q66 152 191 225.5t248 73.5q209 0 313 -142t104 -374h-841q-2 -16 -2 -49v-18q6 -197 163.5 -338.5 t452.5 -141.5q59 0 125 6v-61q-90 -8 -131 -8q-225 0 -381 85t-229 224v-301h-62v106q-139 -127 -358 -126q-178 0 -306 112.5t-128 290.5zM174 383q0 -152 109.5 -247t263.5 -95q231 0 358 156v356q-137 168 -358 168q-156 0 -264.5 -93t-108.5 -245zM975 664h770 q0 152 -88 272.5t-264 120.5q-143 0 -265 -102.5t-153 -290.5z" />
<glyph unicode="&#xe7;" horiz-adv-x="1030" d="M102 549q0 229 183.5 397t513.5 168q61 0 129 -6l-4 -61q-68 6 -125 6q-299 0 -467 -150.5t-168 -353.5t167 -352.5t466 -149.5q59 0 127 6l4 -61q-68 -6 -131 -6q-70 0 -148 10l-10 -37q74 -14 74 -84q0 -51 -37 -76.5t-88 -25.5q-35 0 -66 12l21 57q18 -8 47 -8 q61 0 61 41q0 20 -65 21h-27l29 110q-231 51 -358.5 204t-127.5 339z" />
<glyph unicode="&#xe8;" horiz-adv-x="1150" d="M102 553q0 152 49.5 267.5t126 177t156.5 91t156 29.5q213 0 336 -145.5t123 -370.5h-883q-2 -16 -2 -49q0 -201 166 -349.5t471 -148.5q59 0 125 6v-61q-90 -8 -131 -8q-324 0 -508.5 166t-184.5 395zM172 664h811q0 145 -106.5 269t-286.5 124q-143 0 -265 -102.5 t-153 -290.5zM414 1468l37 50l309 -224l-37 -49z" />
<glyph unicode="&#xe9;" horiz-adv-x="1150" d="M102 553q0 152 49.5 267.5t126 177t156.5 91t156 29.5q213 0 336 -145.5t123 -370.5h-883q-2 -16 -2 -49q0 -201 166 -349.5t471 -148.5q59 0 125 6v-61q-90 -8 -131 -8q-324 0 -508.5 166t-184.5 395zM172 664h811q0 145 -106.5 269t-286.5 124q-143 0 -265 -102.5 t-153 -290.5zM430 1294l309 224l37 -50l-309 -223z" />
<glyph unicode="&#xea;" horiz-adv-x="1150" d="M102 553q0 152 49.5 267.5t126 177t156.5 91t156 29.5q213 0 336 -145.5t123 -370.5h-883q-2 -16 -2 -49q0 -201 166 -349.5t471 -148.5q59 0 125 6v-61q-90 -8 -131 -8q-324 0 -508.5 166t-184.5 395zM172 664h811q0 145 -106.5 269t-286.5 124q-143 0 -265 -102.5 t-153 -290.5zM414 1282l182 236l184 -236l-49 -37l-135 170l-133 -170z" />
<glyph unicode="&#xeb;" horiz-adv-x="1150" d="M102 553q0 152 49.5 267.5t126 177t156.5 91t156 29.5q213 0 336 -145.5t123 -370.5h-883q-2 -16 -2 -49q0 -201 166 -349.5t471 -148.5q59 0 125 6v-61q-90 -8 -131 -8q-324 0 -508.5 166t-184.5 395zM172 664h811q0 145 -106.5 269t-286.5 124q-143 0 -265 -102.5 t-153 -290.5zM408 1331v103h102v-103h-102zM684 1331v103h102v-103h-102z" />
<glyph unicode="&#xec;" horiz-adv-x="348" d="M2 1468l37 50l309 -224l-37 -49zM143 0v1098h62v-1098h-62z" />
<glyph unicode="&#xed;" horiz-adv-x="348" d="M33 1294l309 224l37 -50l-309 -223zM143 0v1098h62v-1098h-62z" />
<glyph unicode="&#xee;" horiz-adv-x="348" d="M-8 1282l182 236l184 -236l-49 -37l-135 170l-133 -170zM143 0v1098h62v-1098h-62z" />
<glyph unicode="&#xef;" horiz-adv-x="348" d="M-14 1331v103h102v-103h-102zM143 0v1098h62v-1098h-62zM262 1331v103h103v-103h-103z" />
<glyph unicode="&#xf1;" horiz-adv-x="1114" d="M135 0v1098h62v-90q150 111 346 110q143 0 259 -71.5t165 -202.5q25 -66 24 -144v-700h-61v700q0 164 -118 260.5t-269 96.5q-209 0 -346 -125v-932h-62zM303 1354q51 96 143 96q59 0 117 -45q39 -31 78 -31q61 0 96 72l49 -37q-53 -96 -145 -96q-55 0 -115 43 q-43 33 -80 33q-61 0 -94 -72z" />
<glyph unicode="&#xf2;" d="M102 548.5q0 235.5 167 402.5t402.5 167t402.5 -167t167 -402.5t-167 -402t-402.5 -166.5t-402.5 166.5t-167 402zM164 549q0 -211 148.5 -359.5t359.5 -148.5t359.5 148.5t148.5 359.5t-148.5 359.5t-359.5 148.5t-359.5 -148.5t-148.5 -359.5zM500 1468l37 50l309 -224 l-37 -49z" />
<glyph unicode="&#xf3;" d="M102 548.5q0 235.5 167 402.5t402.5 167t402.5 -167t167 -402.5t-167 -402t-402.5 -166.5t-402.5 166.5t-167 402zM164 549q0 -211 148.5 -359.5t359.5 -148.5t359.5 148.5t148.5 359.5t-148.5 359.5t-359.5 148.5t-359.5 -148.5t-148.5 -359.5zM524 1294l310 224l36 -50 l-309 -223z" />
<glyph unicode="&#xf4;" d="M102 548.5q0 235.5 167 402.5t402.5 167t402.5 -167t167 -402.5t-167 -402t-402.5 -166.5t-402.5 166.5t-167 402zM164 549q0 -211 148.5 -359.5t359.5 -148.5t359.5 148.5t148.5 359.5t-148.5 359.5t-359.5 148.5t-359.5 -148.5t-148.5 -359.5zM489 1282l183 236 l184 -236l-49 -37l-135 170l-133 -170z" />
<glyph unicode="&#xf5;" d="M102 548.5q0 235.5 167 402.5t402.5 167t402.5 -167t167 -402.5t-167 -402t-402.5 -166.5t-402.5 166.5t-167 402zM164 549q0 -211 148.5 -359.5t359.5 -148.5t359.5 148.5t148.5 359.5t-148.5 359.5t-359.5 148.5t-359.5 -148.5t-148.5 -359.5zM430 1354q51 96 143 96 q59 0 117 -45q39 -31 78 -31q61 0 96 72l49 -37q-53 -96 -145 -96q-55 0 -115 43q-43 33 -80 33q-61 0 -94 -72z" />
<glyph unicode="&#xf6;" d="M102 548.5q0 235.5 167 402.5t402.5 167t402.5 -167t167 -402.5t-167 -402t-402.5 -166.5t-402.5 166.5t-167 402zM164 549q0 -211 148.5 -359.5t359.5 -148.5t359.5 148.5t148.5 359.5t-148.5 359.5t-359.5 148.5t-359.5 -148.5t-148.5 -359.5zM483 1331v103h103v-103 h-103zM760 1331v103h102v-103h-102z" />
<glyph unicode="&#xf7;" horiz-adv-x="983" d="M113 602v62h757v-62h-757zM430 264v123h123v-123h-123zM430 879v122h123v-122h-123z" />
<glyph unicode="&#xf8;" d="M102 23l146 145q-145 166 -146 381q0 236 167 402.5t403 166.5q215 0 377 -145l147 147l45 -45l-147 -147q147 -160 147 -379q0 -236 -167 -402.5t-402 -166.5q-219 0 -379 143l-146 -146zM164 549q0 -195 127 -338l717 719q-143 127 -336 127q-211 0 -359.5 -148.5 t-148.5 -359.5zM336 166q145 -125 336 -125q211 0 359.5 148.5t148.5 359.5q0 188 -127 336z" />
<glyph unicode="&#xf9;" horiz-adv-x="1101" d="M123 395v703h61v-703q0 -156 106.5 -255t260.5 -99t260.5 99.5t106.5 254.5v703h61v-703q0 -182 -125 -298.5t-303 -116.5t-303 116.5t-125 298.5zM350 1468l37 50l309 -224l-37 -49z" />
<glyph unicode="&#xfa;" horiz-adv-x="1101" d="M123 395v703h61v-703q0 -156 106.5 -255t260.5 -99t260.5 99.5t106.5 254.5v703h61v-703q0 -182 -125 -298.5t-303 -116.5t-303 116.5t-125 298.5zM391 1294l309 224l37 -50l-309 -223z" />
<glyph unicode="&#xfb;" horiz-adv-x="1101" d="M123 395v703h61v-703q0 -156 106.5 -255t260.5 -99t260.5 99.5t106.5 254.5v703h61v-703q0 -182 -125 -298.5t-303 -116.5t-303 116.5t-125 298.5zM375 1282l182 236l184 -236l-49 -37l-135 170l-133 -170z" />
<glyph unicode="&#xfc;" horiz-adv-x="1101" d="M123 395v703h61v-703q0 -156 106.5 -255t260.5 -99t260.5 99.5t106.5 254.5v703h61v-703q0 -182 -125 -298.5t-303 -116.5t-303 116.5t-125 298.5zM369 1331v103h102v-103h-102zM645 1331v103h103v-103h-103z" />
<glyph unicode="&#xfd;" horiz-adv-x="1110" d="M123 381v717h61v-721q0 -160 115 -258.5t268 -98.5q104 0 181 39t165 123v916h62v-1221q0 -193 -113.5 -335t-294.5 -142q-160 0 -303 139l41 45q127 -123 262 -123q152 0 249 124t97 292v219q-156 -137 -344 -137q-168 0 -307 113.5t-139 308.5zM377 1294l309 224 l37 -50l-309 -223z" />
<glyph unicode="&#xfe;" horiz-adv-x="1052" d="M123 -481v2074h61v-481q25 2 72 2q328 0 511 -166t183 -393q0 -229 -183 -394t-513 -165h-70v-477h-61zM184 59q25 -2 70 -2q301 0 468 147.5t167 350.5t-167 350.5t-466 147.5q-47 0 -72 -2v-992z" />
<glyph unicode="&#xff;" horiz-adv-x="1110" d="M123 381v717h61v-721q0 -160 115 -258.5t268 -98.5q104 0 181 39t165 123v916h62v-1221q0 -193 -113.5 -335t-294.5 -142q-160 0 -303 139l41 45q127 -123 262 -123q152 0 249 124t97 292v219q-156 -137 -344 -137q-168 0 -307 113.5t-139 308.5zM360 1331v103h103v-103 h-103zM637 1331v103h102v-103h-102z" />
<glyph unicode="&#x152;" horiz-adv-x="2109" d="M102 548.5q0 239.5 169 409.5t409 170q166 0 304 -88t212 -231v289h811v-62h-750v-372h615v-62h-615v-541h750v-61h-811v289q-74 -145 -212 -232.5t-304 -87.5q-240 0 -409 170t-169 409.5zM164 549q0 -215 151.5 -366.5t364.5 -151.5t364.5 151.5t151.5 366.5 t-151.5 366.5t-364.5 151.5t-364.5 -151.5t-151.5 -366.5z" />
<glyph unicode="&#x153;" horiz-adv-x="2228" d="M102 548.5q0 235.5 167 402.5t403 167q178 0 324.5 -102.5t207.5 -265.5q35 129 120 216t171 119.5t172 32.5q213 0 336 -145.5t123 -370.5h-883q-2 -10 -2 -31v-18q0 -201 166 -349.5t471 -148.5q59 0 125 6v-61q-90 -8 -131 -8q-254 0 -425 106.5t-235 272.5 q-57 -172 -205.5 -281.5t-334.5 -109.5q-236 0 -403 166.5t-167 402zM164 549q0 -211 148.5 -359.5t359.5 -148.5t359.5 148.5t148.5 359.5t-148.5 359.5t-359.5 148.5t-359.5 -148.5t-148.5 -359.5zM1249 664h811q0 145 -106.5 269t-286.5 124q-143 0 -265 -102.5 t-153 -290.5z" />
<glyph unicode="&#x178;" horiz-adv-x="1132" d="M102 1077l45 39l416 -518l422 522l45 -43l-436 -538v-539h-62v539zM375 1331v103h102v-103h-102zM651 1331v103h103v-103h-103z" />
<glyph unicode="&#x2c6;" horiz-adv-x="653" d="M143 1282l183 236l184 -236l-49 -37l-135 170l-133 -170z" />
<glyph unicode="&#x2dc;" horiz-adv-x="733" d="M125 1354q51 96 143 96q59 0 117 -45q41 -31 78 -31q61 0 96 72l49 -37q-53 -96 -145 -96q-57 0 -115 43q-43 33 -80 33q-61 0 -94 -72z" />
<glyph unicode="&#x2000;" horiz-adv-x="913" />
<glyph unicode="&#x2001;" horiz-adv-x="1828" />
<glyph unicode="&#x2002;" horiz-adv-x="913" />
<glyph unicode="&#x2003;" horiz-adv-x="1828" />
<glyph unicode="&#x2004;" horiz-adv-x="608" />
<glyph unicode="&#x2005;" horiz-adv-x="456" />
<glyph unicode="&#x2006;" horiz-adv-x="303" />
<glyph unicode="&#x2007;" horiz-adv-x="303" />
<glyph unicode="&#x2008;" horiz-adv-x="227" />
<glyph unicode="&#x2009;" horiz-adv-x="364" />
<glyph unicode="&#x200a;" horiz-adv-x="100" />
<glyph unicode="&#x2010;" horiz-adv-x="737" d="M102 602v62h533v-62h-533z" />
<glyph unicode="&#x2011;" horiz-adv-x="737" d="M102 602v62h533v-62h-533z" />
<glyph unicode="&#x2012;" horiz-adv-x="737" d="M102 602v62h533v-62h-533z" />
<glyph unicode="&#x2013;" horiz-adv-x="1468" d="M102 602v62h1264v-62h-1264z" />
<glyph unicode="&#x2014;" horiz-adv-x="1937" d="M102 602v62h1733v-62h-1733z" />
<glyph unicode="&#x2018;" horiz-adv-x="376" d="M127 1073v174q0 145 96 180l21 -57q-55 -18 -56 -123v-51h62v-123h-123z" />
<glyph unicode="&#x2019;" horiz-adv-x="376" d="M127 1311v123h123v-174q0 -145 -96 -181l-21 58q55 18 55 123v51h-61z" />
<glyph unicode="&#x201a;" horiz-adv-x="376" d="M127 143v123h123v-174q0 -145 -96 -180l-21 57q55 18 55 123v51h-61z" />
<glyph unicode="&#x201c;" horiz-adv-x="622" d="M127 1073v174q0 145 96 180l21 -57q-55 -18 -56 -123v-51h62v-123h-123zM373 1073v174q0 145 96 180l20 -57q-55 -18 -55 -123v-51h62v-123h-123z" />
<glyph unicode="&#x201d;" horiz-adv-x="622" d="M127 1311v123h123v-174q0 -145 -96 -181l-21 58q55 18 55 123v51h-61zM373 1311v123h123v-174q0 -145 -97 -181l-20 58q55 18 55 123v51h-61z" />
<glyph unicode="&#x201e;" horiz-adv-x="622" d="M127 143v123h123v-174q0 -145 -96 -180l-21 57q55 18 55 123v51h-61zM373 143v123h123v-174q0 -145 -97 -180l-20 57q55 18 55 123v51h-61z" />
<glyph unicode="&#x2022;" horiz-adv-x="532" d="M102 614.5q0 67.5 48.5 115.5t116 48t115.5 -48t48 -115.5t-48 -115.5t-115.5 -48t-116 48t-48.5 115.5z" />
<glyph unicode="&#x2026;" horiz-adv-x="1253" d="M147 0v123h123v-123h-123zM565 0v123h123v-123h-123zM983 0v123h123v-123h-123z" />
<glyph unicode="&#x202f;" horiz-adv-x="364" />
<glyph unicode="&#x2039;" horiz-adv-x="587" d="M102 553l347 270l36 -49l-280 -221l280 -219l-36 -49z" />
<glyph unicode="&#x203a;" horiz-adv-x="587" d="M102 334l281 219l-281 221l37 49l346 -270l-346 -268z" />
<glyph unicode="&#x205f;" horiz-adv-x="456" />
<glyph unicode="&#x20ac;" horiz-adv-x="1120" d="M102 592v61h72q-2 20 -2 64q0 37 2 55h-72v62h78q35 258 214 433t474 175q82 0 150 -6l-4 -62q-68 6 -146 6q-266 0 -427.5 -156.5t-198.5 -389.5h557v-62h-563q-2 -18 -3 -55q0 -43 3 -64h563v-61h-555q37 -229 198.5 -383t423.5 -154q80 0 148 6l4 -61q-68 -6 -152 -6 q-291 0 -469 171t-217 427h-78z" />
<glyph unicode="&#x2122;" horiz-adv-x="1263" d="M123 1372v62h469v-62h-207v-409h-61v409h-201zM657 963v520l209 -389l209 389v-520h-61v276l-148 -276l-147 276v-276h-62z" />
<glyph unicode="&#xe000;" horiz-adv-x="1115" d="M0 1115h1115v-1115h-1115v1115z" />
<glyph unicode="&#xf001;" horiz-adv-x="878" d="M43 1036v62h92v235q0 195 87 305.5t222 110.5q123 0 207 -95t84 -200h-61q0 80 -67.5 157t-162.5 77q-106 0 -176.5 -93.5t-70.5 -261.5v-235h323v-62h-323v-1636h-62v1636h-92zM674 0v1098h61v-1098h-61z" />
<glyph unicode="&#xfb01;" horiz-adv-x="878" d="M43 1036v62h92v235q0 195 87 305.5t222 110.5q123 0 207 -95t84 -200h-61q0 80 -67.5 157t-162.5 77q-106 0 -176.5 -93.5t-70.5 -261.5v-235h323v-62h-323v-1636h-62v1636h-92zM674 0v1098h61v-1098h-61z" />
<glyph unicode="&#xf002;" horiz-adv-x="862" d="M43 1036v62h92v276q0 188 107.5 303t263.5 115q133 0 221 -49v-1743h-61v1704q-70 27 -160 27q-131 0 -220 -97.5t-89 -259.5v-276h323v-62h-323v-1636h-62v1636h-92z" />
<glyph unicode="&#xfb02;" horiz-adv-x="862" d="M43 1036v62h92v276q0 188 107.5 303t263.5 115q133 0 221 -49v-1743h-61v1704q-70 27 -160 27q-131 0 -220 -97.5t-89 -259.5v-276h323v-62h-323v-1636h-62v1636h-92z" />
<glyph unicode="&#xfb03;" horiz-adv-x="1409" d="M1184 1331v103h102v-103h-102zM1204 0v1098h62v-1098h-62zM573 1036v62h92v235q0 188 107.5 302t263.5 114q98 0 164.5 -30.5t140.5 -98.5l-41 -45q-68 61 -124 87t-140 26q-131 0 -220 -96.5t-89 -258.5v-235h323v-62h-323v-1636h-62v1636h-92zM43 1036v62h92v235 q0 188 107.5 302t263.5 114q98 0 164.5 -30.5t140.5 -98.5l-41 -45q-68 61 -124 87t-140 26q-131 0 -220 -96.5t-89 -258.5v-235h323v-62h-323v-1636h-62v1636h-92z" />
<glyph unicode="&#xfb04;" horiz-adv-x="1392" d="M1196 0v1829h62v-1829h-62zM573 1036v62h92v235q0 188 107.5 302t263.5 114q98 0 164.5 -30.5t140.5 -98.5l-41 -45q-68 61 -124 87t-140 26q-131 0 -220 -96.5t-89 -258.5v-235h323v-62h-323v-1636h-62v1636h-92zM43 1036v62h92v235q0 188 107.5 302t263.5 114 q98 0 164.5 -30.5t140.5 -98.5l-41 -45q-68 61 -124 87t-140 26q-131 0 -220 -96.5t-89 -258.5v-235h323v-62h-323v-1636h-62v1636h-92z" />
</font>
</defs>
</svg>
